<svg width="32" height="47" viewBox="0 0 32 47" fill="none" xmlns="http://www.w3.org/2000/svg">
<path d="M25.4135 37.467L24.9179 37.5333L25.4135 37.4669L25.4135 37.4667L25.4133 37.4654L25.4126 37.4603L25.4099 37.4394L25.3991 37.3568C25.3898 37.2842 25.3762 37.1773 25.3593 37.0408C25.3256 36.7678 25.2789 36.3764 25.2269 35.9043C25.1229 34.9593 24.9984 33.6937 24.9155 32.4063C24.8324 31.1151 24.7922 29.8183 24.853 28.8051C24.8835 28.2963 24.9384 27.881 25.0175 27.5812C25.057 27.4315 25.0983 27.3276 25.1351 27.2611C25.1554 27.2244 25.1696 27.2075 25.1748 27.2018C26.4937 26.4502 28.7317 24.9875 30.5537 21.7301C30.6154 22.1518 30.6657 22.7298 30.7025 23.4468C30.8142 25.62 30.795 28.8582 30.7187 32.2219C30.6425 35.5815 30.5098 39.0522 30.396 41.6838C30.3391 42.9994 30.287 44.1048 30.2492 44.8813C30.2344 45.1833 30.2218 45.4355 30.212 45.6309H25.1747C18.8425 39.6103 14.4867 35.4046 11.71 32.7C10.3111 31.3374 9.31304 30.3558 8.66493 29.7152C8.34088 29.3949 8.10433 29.1598 7.94892 29.0049C7.87122 28.9275 7.8138 28.8701 7.77588 28.8321L7.73351 28.7897L7.72311 28.7792L7.72057 28.7767L7.71996 28.7761L7.71982 28.7759L7.36529 29.1285L7.71979 28.7759L6.90562 27.9574L6.86559 29.1112L6.29227 45.6348H1.35016V23.8809H10.3969L24.5664 37.8888L25.6075 38.9181L25.4135 37.467Z" fill="#F6F1F1" stroke="#F6F1F1"/>
<path d="M6.86792 27.2059L6.36792 27.2059V27.7059V45.6349H1.35016V1.13142L17.4713 1.13145C21.9914 1.13145 25.3357 2.77162 27.5519 5.19898C29.7756 7.63451 30.8917 10.8938 30.8856 14.1678C30.8795 17.4418 29.7513 20.7019 27.5239 23.1382C25.304 25.5664 21.9655 27.206 17.4713 27.206L6.86792 27.2059Z" fill="#F6F1F1" stroke="#F6F1F1"/>
<path d="M7.6655 22.3017C7.63735 22.3012 7.6096 22.3006 7.36426 22.3001V6.06505H16.2909C19.2329 6.06505 21.3855 7.09477 22.8017 8.60136C24.2245 10.1149 24.9347 12.1424 24.9241 14.1828C24.9135 16.2233 24.182 18.253 22.7519 19.7687C21.3284 21.2774 19.1859 22.3057 16.2909 22.3057C7.85955 22.3057 7.76029 22.3037 7.6655 22.3017Z" fill="#146C94" stroke="#F6F1F1"/>
</svg>
